<?xml version="1.0" standalone="no"?>
<!DOCTYPE svg PUBLIC "-//W3C//DTD SVG 20010904//EN"
 "http://www.w3.org/TR/2001/REC-SVG-20010904/DTD/svg10.dtd">
<svg version="1.0" xmlns="http://www.w3.org/2000/svg"
 width="389.000000pt" height="435.000000pt" viewBox="0 0 389.000000 435.000000"
 preserveAspectRatio="xMidYMid meet">

<g transform="translate(0.000000,435.000000) scale(0.100000,-0.100000)"
fill="#000000" stroke="none">
<path d="M0 4164 l0 -187 26 49 c79 149 212 258 372 304 l67 19 -232 0 -233 1
0 -186z"/>
<path d="M3465 4331 c103 -29 176 -72 251 -146 79 -79 119 -140 151 -235 l22
-65 1 233 0 232 -242 -1 -243 0 60 -18z"/>
<path d="M460 4156 c-107 -30 -192 -91 -250 -180 -75 -114 -71 -4 -68 -1841 2
-902 7 -1651 11 -1665 4 -14 1 -9 -7 10 -11 26 -15 91 -16 260 -1 124 -6 268
-10 320 -7 92 -7 93 -10 30 -1 -36 -6 -128 -9 -205 l-8 -140 -2 125 c-2 69 -5
117 -8 108 -8 -31 -41 -21 -49 15 l-8 32 -8 -40 c-15 -68 -22 -583 -9 -599 8
-10 9 -16 1 -21 -6 -4 -10 -71 -10 -185 l0 -179 1945 -1 1945 0 0 1097 c-1
772 -4 1093 -11 1080 -6 -10 -22 -22 -35 -27 -16 -6 -24 -17 -24 -33 0 -13 -9
-32 -20 -42 -11 -10 -20 -30 -21 -44 l-1 -26 -8 25 c-8 25 -8 25 -11 -5 -2
-16 -6 15 -9 70 -4 63 -7 -36 -10 -265 -2 -201 -5 -351 -7 -335 -2 17 -7 554
-11 1195 l-7 1165 -32 67 c-38 81 -104 155 -171 191 -110 60 -35 57 -1587 56
-1104 -1 -1430 -4 -1465 -13z m2567 -564 c54 -28 227 -193 258 -246 36 -63 50
-144 37 -209 -23 -114 -25 -116 -569 -653 -284 -280 -534 -528 -556 -551 -22
-23 -58 -49 -81 -57 -68 -24 -502 -126 -538 -126 -56 0 -108 54 -108 112 0 27
109 538 118 555 13 22 1118 1129 1151 1152 55 40 100 52 176 48 46 -3 84 -11
112 -25z m-775 -110 c31 -31 31 -93 0 -124 l-23 -23 -712 -5 -712 -5 -3 -1210
c-1 -848 1 -1218 9 -1236 6 -15 22 -31 35 -38 18 -8 322 -12 1082 -13 l1057
-2 -780 -7 c-429 -3 -795 -7 -812 -8 -51 -2 -43 -29 10 -34 23 -2 -67 -4 -200
-5 -217 -2 -243 -4 -243 -18 0 -14 8 -16 53 -10 28 3 117 8 197 10 80 2 110 1
68 -1 -60 -3 -78 -7 -78 -18 0 -12 -17 -15 -80 -15 -47 0 -80 -4 -80 -10 0
-12 -77 -13 -82 -1 -2 5 -38 12 -80 16 -69 6 -78 5 -78 -9 0 -9 -7 -19 -16
-23 -14 -5 -14 -7 2 -17 13 -8 220 -12 674 -14 360 -1 702 -3 760 -5 58 -1
-228 -4 -636 -5 -604 -2 -749 1 -786 12 -57 17 -120 74 -150 135 l-23 46 -3
1255 c-3 1368 -5 1305 52 1359 54 51 48 51 828 48 l727 -2 23 -23z m949 -971
c34 -27 35 -65 29 -793 -5 -545 -6 -579 -9 -273 -2 193 -5 339 -8 325 -14 -96
-11 -90 -53 -90 -29 0 -40 4 -40 15 0 8 -4 15 -10 15 -5 0 -10 -15 -10 -33 0
-18 -7 -42 -15 -53 -11 -15 -14 -56 -15 -193 0 -96 -2 -172 -5 -169 -3 2 -5
278 -5 613 l-1 608 22 24 c28 29 87 31 120 4z m-540 -971 c53 -29 53 -112 0
-149 -29 -21 -38 -21 -746 -21 l-717 0 -29 29 c-16 16 -29 39 -29 51 0 29 29
76 54 89 29 14 1440 15 1467 1z m-392 -345 c40 -20 55 -68 35 -106 -8 -17 -26
-34 -40 -39 -15 -6 -238 -10 -545 -10 l-521 0 -29 29 c-37 38 -39 82 -4 116
l24 25 526 0 c443 0 530 -2 554 -15z m-686 -422 c-13 -2 -33 -2 -45 0 -13 2
-3 4 22 4 25 0 35 -2 23 -4z m-1466 -255 c-3 -8 -6 -5 -6 6 -1 11 2 17 5 13 3
-3 4 -12 1 -19z m88 -158 c3 -5 1 -10 -4 -10 -6 0 -11 5 -11 10 0 6 2 10 4 10
3 0 8 -4 11 -10z m70 -80 c3 -6 -1 -7 -9 -4 -18 7 -21 14 -7 14 6 0 13 -4 16
-10z m335 -104 c8 -2 -16 -4 -55 -5 -38 0 -76 3 -82 7 -12 7 102 5 137 -2z
m213 -3 c-34 -2 -93 -2 -130 0 -37 2 -9 3 62 3 72 0 102 -1 68 -3z m-598 -71
c-3 -3 -11 0 -18 7 -9 10 -8 11 6 5 10 -3 15 -9 12 -12z"/>
<path d="M2845 3421 c-16 -10 -63 -52 -103 -93 l-72 -74 150 -150 150 -150 85
86 c130 131 128 166 -20 309 -104 100 -130 110 -190 72z"/>
<path d="M2145 2730 l-390 -390 -42 -193 c-22 -105 -40 -193 -38 -195 2 -2 85
17 185 41 l183 46 131 128 c72 70 251 247 399 393 l268 264 -148 148 c-81 81
-150 148 -153 148 -3 0 -181 -176 -395 -390z"/>
<path d="M733 950 c0 -25 2 -35 4 -22 2 12 2 32 0 45 -2 12 -4 2 -4 -23z"/>
<path d="M770 945 c-5 -38 -1 -58 13 -82 10 -18 20 -33 22 -33 8 0 -2 42 -12
48 -6 4 -13 32 -15 62 l-3 55 -5 -50z"/>
<path d="M634 894 c3 -9 6 -27 6 -40 0 -13 5 -24 10 -24 6 0 10 18 10 40 0 30
-4 40 -16 40 -11 0 -14 -5 -10 -16z"/>
<path d="M721 844 c0 -11 3 -14 6 -6 3 7 2 16 -1 19 -3 4 -6 -2 -5 -13z"/>
<path d="M750 845 c0 -8 5 -15 10 -15 6 0 10 7 10 15 0 8 -4 15 -10 15 -5 0
-10 -7 -10 -15z"/>
<path d="M680 824 c0 -10 -6 -14 -15 -10 -8 3 -15 3 -15 0 0 -19 92 -124 109
-124 15 1 32 18 29 31 -4 18 -19 29 -38 29 -12 0 -12 -2 -2 -9 10 -6 9 -10 -7
-14 -12 -3 -19 -1 -15 4 3 5 1 9 -5 9 -5 0 -8 12 -6 27 3 29 -13 73 -27 73 -4
0 -8 -7 -8 -16z m25 -44 c1 -16 0 -30 -1 -30 -10 0 -23 41 -18 55 9 22 17 11
19 -25z"/>
<path d="M820 827 c0 -8 17 -22 38 -31 31 -14 63 -16 192 -14 l155 4 -162 2
c-94 1 -163 6 -163 11 0 6 17 12 38 14 24 3 21 4 -10 2 -31 -1 -52 3 -59 11
-15 18 -29 18 -29 1z"/>
<path d="M800 792 c0 -14 46 -34 66 -30 18 5 18 5 -1 12 -11 4 -28 12 -37 17
-22 11 -28 11 -28 1z"/>
<path d="M3213 1920 c0 -30 2 -43 4 -27 2 15 2 39 0 55 -2 15 -4 2 -4 -28z"/>
<path d="M2665 1504 c9 -9 14 -23 11 -30 -3 -8 -1 -14 4 -14 6 0 10 8 10 18 0
19 -18 42 -33 42 -5 0 -1 -7 8 -16z"/>
<path d="M2588 1483 c6 -2 18 -2 25 0 6 3 1 5 -13 5 -14 0 -19 -2 -12 -5z"/>
<path d="M2565 1440 c-4 -6 10 -10 34 -10 23 0 41 5 41 10 0 6 -15 10 -34 10
-19 0 -38 -4 -41 -10z"/>
<path d="M2671 1442 c-1 -21 -23 -37 -56 -40 -43 -5 -45 -12 -3 -12 38 0 74
29 65 52 -4 11 -6 11 -6 0z"/>
<path d="M2105 1188 c-33 -5 -107 -7 -165 -5 -92 4 -98 4 -45 -5 33 -5 101 -7
151 -4 97 6 167 -1 158 -15 -3 -5 -29 -7 -57 -5 -29 2 -37 1 -19 -1 23 -3 32
-9 32 -23 0 -16 -11 -20 -80 -26 -53 -4 -80 -11 -80 -19 0 -8 -29 -16 -82 -22
-76 -9 -66 -10 122 -12 218 -1 235 2 260 49 15 27 -3 66 -39 85 -33 17 -66 17
-156 3z m113 -5 c-10 -2 -28 -2 -40 0 -13 2 -5 4 17 4 22 1 32 -1 23 -4z m44
-30 c3 -16 8 -37 13 -48 5 -16 5 -17 -4 -5 -8 11 -11 12 -11 2 0 -7 -5 -10
-11 -7 -6 4 -8 14 -5 22 4 9 1 22 -5 29 -9 11 -9 14 0 14 7 0 9 5 6 10 -3 6
-2 10 3 10 5 0 12 -12 14 -27z m32 -23 c10 -13 9 -13 -6 -1 -10 7 -18 21 -17
30 0 13 1 14 6 1 3 -8 11 -22 17 -30z"/>
<path d="M1175 1180 c-3 -6 1 -7 9 -4 18 7 21 14 7 14 -6 0 -13 -4 -16 -10z"/>
<path d="M1560 1060 l-205 -6 202 -2 c126 -1 204 2 208 8 3 6 5 9 3 8 -2 -1
-95 -5 -208 -8z"/>
</g>
</svg>
